<svg width="32" height="32" viewBox="0 0 32 32" fill="none" xmlns="http://www.w3.org/2000/svg">
<g id="Frame 18" clip-path="url(#clip0_7_1877)">
<circle id="Ellipse 14" cx="16" cy="16" r="16" fill="#00B3FF"/>
<g id="Group 32">
<path id="Polygon 2" d="M24 10.134C24.6667 10.5189 24.6667 11.4811 24 11.866L19.5 14.4641C18.8333 14.849 18 14.3679 18 13.5981L18 8.40192C18 7.63212 18.8333 7.151 19.5 7.5359L24 10.134Z" fill="white"/>
<path id="Vector 9" d="M18 11L9 11" stroke="white" stroke-width="2" stroke-linecap="round"/>
</g>
<g id="Group 33" opacity="0.5">
<path id="Polygon 2_2" d="M8.5 21.866C7.83333 21.4811 7.83333 20.5189 8.5 20.134L13 17.5359C13.6667 17.151 14.5 17.6321 14.5 18.4019L14.5 23.5981C14.5 24.3679 13.6667 24.849 13 24.4641L8.5 21.866Z" fill="white"/>
<path id="Vector 9_2" d="M14.5 21L23.5 21" stroke="white" stroke-width="2" stroke-linecap="round"/>
</g>
</g>
<defs>
<clipPath id="clip0_7_1877">
<rect width="32" height="32" fill="white"/>
</clipPath>
</defs>
</svg>
